# xmcd
#
# Track frame offsets:
#	150
#	11445
#	24315
#	43387
#	56277
#	70972
#	82680
#	98982
#	110797
#	124465
#	142845
#	153615
#	166260
#	178347
#	190665
#
# Disc length: 2864
#
# Revision: 1
# Processed by: cddbd v1.5.1PL0 Copyright (c) Steve Scherf et al.
# Submitted via: ExactAudioCopy v0.90b4
# Normalized: r0:DSETVAR1,TDELIM( - )
#
DISCID=c70b2e0f
DTITLE=Various Artist - Living The Blues
DYEAR=1900
DGENRE=Blues
TTITLE0=Little Junior Parker - Crying for my baby
TTITLE1=Carter Brothers - Southern country boy
TTITLE2=Buddy Guy - My time after a while
TTITLE3=Howlin' Wolf - Killing floor
TTITLE4=Magic Sam - That's all I need
TTITLE5=B.B. King - Paying the cost to be the boss
TTITLE6=John Lee Hooker - It serves me right
TTITLE7=Clifton Chenier - Black gal
TTITLE8=Ted Taylor - It's too late
TTITLE9=Little Milton - Feel so bad
TTITLE10=Etta James - Tell Mama
TTITLE11=Johnny Taylor - Who's making love
TTITLE12=Jimmy McCracklin - My answer
TTITLE13=Betty Everett - There'll come a time
TTITLE14=Albert Collins - Conversation with Collins
EXTD=
EXTT0=
EXTT1=
EXTT2=
EXTT3=
EXTT4=
EXTT5=
EXTT6=
EXTT7=
EXTT8=
EXTT9=
EXTT10=
EXTT11=
EXTT12=
EXTT13=
EXTT14=
PLAYORDER=
